<svg xmlns="http://www.w3.org/2000/svg" xmlns:xlink="http://www.w3.org/1999/xlink" version="1.1" x="0px" y="0px" viewBox="0 0 32 40" enable-background="new 0 0 32 32" xml:space="preserve"><g><path fill="#000000" d="M10.5,28.983c-1.425,0-2.5-1.138-2.5-2.646v-9.772c-1.862-0.452-3-2.065-3-4.311V5.593   c0-0.876,0.659-1.562,1.5-1.562S8,4.717,8,5.593V9.84c0,0.271,0.156,0.562,0.5,0.562S9,10.11,9,9.84V5.593   c0-0.876,0.659-1.562,1.5-1.562S12,4.717,12,5.593V9.84c0,0.271,0.156,0.562,0.5,0.562S13,10.11,13,9.84V5.593   c0-0.876,0.659-1.562,1.5-1.562S16,4.717,16,5.593v6.662c0,2.043-1.139,3.616-3,4.193v9.89C13,27.846,11.925,28.983,10.5,28.983z    M6.5,5.031C6.156,5.031,6,5.322,6,5.593v6.662c0,1.906,0.961,3.178,2.569,3.403C8.816,15.692,9,15.903,9,16.153v10.185   c0,0.953,0.631,1.646,1.5,1.646s1.5-0.692,1.5-1.646V16.064c0-0.234,0.162-0.437,0.391-0.488C14.049,15.205,15,13.994,15,12.255   V5.593c0-0.271-0.156-0.562-0.5-0.562S14,5.322,14,5.593V9.84c0,0.876-0.659,1.562-1.5,1.562S11,10.716,11,9.84V5.593   c0-0.271-0.156-0.562-0.5-0.562S10,5.322,10,5.593V9.84c0,0.876-0.659,1.562-1.5,1.562S7,10.716,7,9.84V5.593   C7,5.322,6.844,5.031,6.5,5.031z"/></g><g><path fill="#000000" d="M23.5,28.983c-1.425,0-2.5-1.138-2.5-2.646V19c0-0.011,0-0.021,0.001-0.031   c-0.274-0.183-0.519-0.4-0.733-0.652c-1.055-1.235-1.345-3.235-0.887-6.115c1.056-6.64,5.734-8.586,5.934-8.666   c0.152-0.062,0.328-0.042,0.466,0.05C25.918,3.679,26,3.834,26,4v22.338C26,27.846,24.925,28.983,23.5,28.983z M22,19.447v6.891   c0,0.953,0.631,1.646,1.5,1.646s1.5-0.692,1.5-1.646V4.825c-1.267,0.771-3.894,2.892-4.631,7.534   c-0.409,2.573-0.193,4.309,0.659,5.309c0.596,0.698,1.504,1.037,2.776,1.037c0.276,0,0.5,0.224,0.5,0.5s-0.224,0.5-0.5,0.5   C23.134,19.705,22.531,19.619,22,19.447z"/></g><text x="0" y="47" fill="#000000" font-size="5px" font-weight="bold" font-family="'Helvetica Neue', Helvetica, Arial-Unicode, Arial, Sans-serif">Created by Guilherme Simoes</text><text x="0" y="52" fill="#000000" font-size="5px" font-weight="bold" font-family="'Helvetica Neue', Helvetica, Arial-Unicode, Arial, Sans-serif">from the Noun Project</text></svg>